<svg width="32" height="32" viewBox="0 0 32 32" fill="none" xmlns="http://www.w3.org/2000/svg">
<path d="M8.86567 5.87825C13.6147 5.50673 18.3855 5.50673 23.1345 5.87825L26.3246 6.12782C28.1015 6.26683 29.5552 7.5985 29.8489 9.35637C30.5838 13.7547 30.5838 18.2445 29.8489 22.6428C29.5552 24.4007 28.1015 25.7324 26.3246 25.8714L23.1345 26.121C18.3855 26.4925 13.6147 26.4925 8.86567 26.121L5.67556 25.8714C3.89866 25.7324 2.44502 24.4007 2.15129 22.6428C1.41637 18.2445 1.41637 13.7547 2.15129 9.35637C2.44502 7.5985 3.89866 6.26683 5.67556 6.12782L8.86567 5.87825Z" stroke="black" stroke-width="3.2" stroke-linejoin="round"/>
<path d="M12.6782 11.9428V20.058C12.6782 20.4411 13.1008 20.6777 13.4329 20.4806L20.2711 16.423C20.5936 16.2316 20.5936 15.7692 20.2711 15.5778L13.4329 11.5202C13.1008 11.3231 12.6782 11.5597 12.6782 11.9428Z" fill="black"/>
</svg>
