<svg width="40" height="40" viewBox="0 0 40 40" fill="none" xmlns="http://www.w3.org/2000/svg">
<path d="M29.375 0.797729H36.6667C37.8125 0.797729 38.75 1.73523 38.75 2.88106C38.75 22.4436 22.8958 38.2977 3.33334 38.2977C2.1875 38.2977 1.25 37.3602 1.25 36.2144V28.9436C1.25 27.7977 2.1875 26.8602 3.33334 26.8602C5.91667 26.8602 8.4375 26.4436 10.7708 25.6727C10.9792 25.5894 11.2083 25.5686 11.4167 25.5686C11.9583 25.5686 12.4792 25.7769 12.8958 26.1727L17.4792 30.7561C23.375 27.7352 28.2083 22.9227 31.2083 17.0269L26.625 12.4436C26.0417 11.8602 25.875 11.0477 26.1042 10.3186C26.875 7.98523 27.2917 5.48523 27.2917 2.88106C27.2917 1.73523 28.2292 0.797729 29.375 0.797729Z" fill="black"/>
</svg>
