<svg width="32" height="32" viewBox="0 0 32 32" fill="none" xmlns="http://www.w3.org/2000/svg">
<path d="M4.53266 8.74969C3.96299 8.22077 3.67969 7.56607 3.67969 6.78709C3.67969 6.0081 3.96451 5.32457 4.53266 4.79414C5.10234 4.26522 5.83564 4 6.73409 4C7.63254 4 8.33706 4.26522 8.90522 4.79414C9.47489 5.32306 9.7582 5.9884 9.7582 6.78709C9.7582 7.58577 9.47338 8.22077 8.90522 8.74969C8.33555 9.27862 7.61284 9.54383 6.73409 9.54383C5.85534 9.54383 5.10234 9.27862 4.53266 8.74969ZM9.27944 11.7838V28H4.15693V11.7838H9.27944Z" fill="black"/>
<path d="M26.332 13.385C27.4486 14.5975 28.0062 16.2616 28.0062 18.3803V27.7129H23.1412V19.038C23.1412 17.9695 22.864 17.139 22.311 16.548C21.758 15.9569 21.0126 15.6599 20.0793 15.6599C19.146 15.6599 18.4005 15.9554 17.8475 16.548C17.2945 17.139 17.0172 17.9695 17.0172 19.038V27.7129H12.1235V11.7377H17.0172V13.8564C17.5127 13.1502 18.1809 12.5924 19.0202 12.1817C19.8596 11.771 20.8035 11.5664 21.8534 11.5664C23.723 11.5664 25.2169 12.1726 26.332 13.385Z" fill="black"/>
</svg>
