<svg width="32" height="32" viewBox="0 0 32 32" fill="none" xmlns="http://www.w3.org/2000/svg">
<path d="M11.8197 28.6663H20.1797C27.1464 28.6663 29.9331 26.133 29.9331 19.7997V12.1997C29.9331 5.86634 27.1464 3.33301 20.1797 3.33301H11.8197C4.85307 3.33301 2.06641 5.86634 2.06641 12.1997V19.7997C2.06641 26.133 4.85307 28.6663 11.8197 28.6663Z" stroke="black" stroke-width="3.2" stroke-linecap="round" stroke-linejoin="round"/>
<path d="M12.2002 15.9991V14.1244C12.2002 11.7051 13.9102 10.7298 16.0002 11.9331L17.6215 12.8704L19.2429 13.8078C21.3329 15.0111 21.3329 16.9871 19.2429 18.1904L17.6215 19.1278L16.0002 20.0651C13.9102 21.2684 12.2002 20.2804 12.2002 17.8738V15.9991Z" fill="black"/>
</svg>
