<svg width="32" height="32" viewBox="0 0 32 32" fill="none" xmlns="http://www.w3.org/2000/svg">
<path d="M22.7604 3.19922H9.40933C5.72087 3.19922 2.72021 6.20076 2.72021 9.89031V22.1081C2.72021 25.7977 5.72087 28.7992 9.40933 28.7992H22.7604C26.4488 28.7992 29.4495 25.7977 29.4495 22.1081V9.89031C29.4495 6.20076 26.4488 3.19922 22.7604 3.19922ZM5.07993 9.89031C5.07993 7.50269 7.02241 5.5596 9.40933 5.5596H22.7604C25.1473 5.5596 27.0898 7.50269 27.0898 9.89031V22.1081C27.0898 24.4958 25.1473 26.4388 22.7604 26.4388H9.40933C7.02241 26.4388 5.07993 24.4958 5.07993 22.1081V9.89031Z" fill="black" stroke="black" stroke-width="0.8"/>
<path d="M16.0848 22.2211C19.5148 22.2211 22.3068 19.4298 22.3068 15.9973C22.3068 12.5648 19.5163 9.77344 16.0848 9.77344C12.6533 9.77344 9.86279 12.5648 9.86279 15.9973C9.86279 19.4298 12.6533 22.2211 16.0848 22.2211ZM16.0848 12.1353C18.2147 12.1353 19.9471 13.8682 19.9471 15.9988C19.9471 18.1293 18.2147 19.8622 16.0848 19.8622C13.9549 19.8622 12.2225 18.1293 12.2225 15.9988C12.2225 13.8682 13.9549 12.1353 16.0848 12.1353Z" fill="black" stroke="black" stroke-width="0.8"/>
<path d="M22.8825 10.7796C23.8061 10.7796 24.5589 10.0281 24.5589 9.10272C24.5589 8.17731 23.8076 7.42578 22.8825 7.42578C21.9573 7.42578 21.2061 8.17731 21.2061 9.10272C21.2061 10.0281 21.9573 10.7796 22.8825 10.7796Z" fill="black" stroke="black" stroke-width="0.8"/>
</svg>
