<svg width="32" height="32" viewBox="0 0 32 32" fill="none" xmlns="http://www.w3.org/2000/svg">
<path d="M21.966 14.9258C25.2701 16.2993 26.8957 19.5871 25.8176 22.9897C25.0829 25.3121 22.9899 27.1881 20.7471 28.0362C17.9194 29.1087 14.122 29.0399 11.333 27.8972C5.67633 25.5824 4.35674 19.1548 4.91841 13.8073C5.30964 10.0642 6.88747 6.4155 10.3711 4.53949C12.9961 3.12005 16.3558 2.91854 19.2299 3.51285C22.2139 4.13011 24.6362 5.87348 26.1042 8.51341C26.5574 9.32325 26.9241 10.2185 27.1979 11.2146C27.2056 11.2528 27.1901 11.2924 27.1514 11.3L25.0739 11.8408C25.0351 11.8484 24.9951 11.8254 24.9873 11.7948C24.6749 10.6215 24.1829 9.57959 23.5025 8.67028C21.3772 5.81481 17.4791 5.05089 14.1194 5.64519C10.1581 6.3479 7.97077 9.09498 7.33034 12.8674C6.80741 15.9308 6.97139 19.48 8.40074 22.3049C9.60413 24.6821 11.7837 26.016 14.4086 26.3872C15.8225 26.5797 17.2054 26.5568 18.5572 26.3094C20.4953 25.9548 22.5728 24.6884 23.416 22.8749C23.9634 21.7016 24.0177 20.2133 23.416 19.0477C23.0725 18.3845 22.556 17.8514 21.8769 17.4509C21.8459 17.428 21.7981 17.4433 21.7826 17.4739C21.7749 17.4815 21.7749 17.4892 21.7749 17.4968C21.6961 18.0682 21.5644 18.6306 21.3682 19.179C21.0867 19.9582 20.6813 20.6303 20.1415 21.1775C18.3287 23.0216 15.173 23.1836 13.04 21.8559C11.3369 20.791 10.6965 18.6153 11.5086 16.8247C12.3518 14.973 14.4151 14.1708 16.3751 14.0777C17.4843 14.0241 18.5082 14.07 19.4533 14.2014C19.4921 14.2091 19.523 14.1784 19.5321 14.1402V14.1172C19.4456 13.6925 19.3449 13.3456 19.2196 13.0753C18.5637 11.6482 17.0866 11.2694 15.6107 11.4543C14.6656 11.5704 13.9231 12.0104 13.3679 12.7667C13.3447 12.7973 13.306 12.8049 13.2737 12.7819L11.5086 11.5933C11.4776 11.5704 11.4699 11.5321 11.4932 11.4926C12.4383 10.1803 13.7191 9.41634 15.3448 9.20846C16.6889 9.03119 18.1957 9.23907 19.3681 9.94178C21.1254 11.0067 21.7503 12.921 21.9066 14.8569C21.9221 14.8952 21.9376 14.9181 21.9608 14.9258H21.966ZM13.5358 17.9509C13.1846 19.1165 13.9968 20.0347 15.0981 20.3115C16.645 20.6979 18.3636 20.3574 19.0982 18.7913C19.3875 18.1741 19.5592 17.4484 19.6134 16.6233C19.6134 16.585 19.5902 16.5544 19.5592 16.5544C18.4113 16.3312 17.2312 16.284 16.0278 16.4001C15.0517 16.5008 13.8405 16.9408 13.5358 17.9509Z" fill="black" stroke="black" stroke-width="0.8"/>
</svg>
