<svg width="32" height="32" viewBox="0 0 32 32" fill="none" xmlns="http://www.w3.org/2000/svg">
<path d="M27.0395 10.0049V14.2794C26.2885 14.2064 25.3127 14.0367 24.2332 13.6434C22.8237 13.1295 21.7746 12.4269 21.0874 11.8829V20.5222L21.0698 20.4953C21.081 20.6666 21.0874 20.841 21.0874 21.0171C21.0874 25.3074 17.578 28.8 13.2634 28.8C8.94884 28.8 5.43945 25.3074 5.43945 21.0171C5.43945 16.7267 8.94884 13.2326 13.2634 13.2326C13.6859 13.2326 14.1005 13.2659 14.5055 13.3309V17.5436C14.1164 17.4056 13.6987 17.331 13.2634 17.331C11.2209 17.331 9.55792 18.9837 9.55792 21.0171C9.55792 23.0504 11.2209 24.7031 13.2634 24.7031C15.3059 24.7031 16.9689 23.0489 16.9689 21.0171C16.9689 20.941 16.9673 20.8648 16.9625 20.7887V4H21.2564C21.2723 4.36163 21.2867 4.72644 21.3026 5.08807C21.3313 5.80022 21.5864 6.48383 22.0313 7.04372C22.5527 7.70195 23.3228 8.46641 24.4038 9.07705C25.4163 9.64645 26.3666 9.89232 27.0395 10.0081V10.0049Z" fill="black"/>
</svg>
