<svg width="32" height="32" viewBox="0 0 32 32" fill="none" xmlns="http://www.w3.org/2000/svg">
<path d="M18.9337 3.83398C17.2982 3.83398 15.7296 4.48369 14.5732 5.64016C13.4167 6.79663 12.767 8.36515 12.767 10.0007V13.434H9.46699C9.30131 13.434 9.16699 13.5683 9.16699 13.734V18.2673C9.16699 18.433 9.30131 18.5673 9.46699 18.5673H12.767V27.8673C12.767 28.033 12.9013 28.1673 13.067 28.1673H17.6003C17.766 28.1673 17.9003 28.033 17.9003 27.8673V18.5673H21.2296C21.3672 18.5673 21.4872 18.4736 21.5206 18.3401L22.6539 13.8067C22.7013 13.6174 22.5581 13.434 22.3629 13.434H17.9003V10.0007C17.9003 9.72659 18.0092 9.46376 18.203 9.26997C18.3968 9.07619 18.6596 8.96732 18.9337 8.96732H22.4003C22.566 8.96732 22.7003 8.833 22.7003 8.66732V4.13398C22.7003 3.9683 22.566 3.83398 22.4003 3.83398H18.9337Z" fill="black"/>
</svg>
