<svg width="32" height="29" viewBox="0 0 32 29" fill="none" xmlns="http://www.w3.org/2000/svg">
<path d="M15.5331 19.866C18.6628 19.866 21.2 17.3288 21.2 14.1991C21.2 11.0694 18.6628 8.53223 15.5331 8.53223C12.4034 8.53223 9.86621 11.0694 9.86621 14.1991C9.86621 17.3288 12.4034 19.866 15.5331 19.866Z" stroke="black" stroke-width="3.2" stroke-linecap="round" stroke-linejoin="round"/>
<path d="M19.7129 26.9329H11.3529C4.38628 26.9329 1.59961 24.3996 1.59961 18.0663V10.4663C1.59961 4.13294 4.38628 1.59961 11.3529 1.59961H19.7129C26.6796 1.59961 29.4663 4.13294 29.4663 10.4663V14.1271M29.4663 14.294V15.7322C29.4663 18.015 27.6157 19.8655 25.3329 19.8655C23.0501 19.8655 21.1995 18.015 21.1995 15.7322V14.294" stroke="black" stroke-width="3.2" stroke-linecap="round" stroke-linejoin="round"/>
</svg>
