<svg width="40" height="40" viewBox="0 0 40 40" fill="none" xmlns="http://www.w3.org/2000/svg">
<path fill-rule="evenodd" clip-rule="evenodd" d="M34.2227 4C35.2001 4.00024 35.9998 4.79991 36 5.77734C36 22.2099 22.8904 35.5767 6.55762 35.9902L5.77734 36C4.86086 35.9998 4.10023 35.2968 4.00879 34.4033L4 34.2227V28.0176C4.00011 27.04 4.79983 26.2405 5.77734 26.2402C7.98166 26.2402 10.133 25.8843 12.124 25.2266C12.3018 25.1555 12.498 25.1377 12.6758 25.1377C13.1379 25.1378 13.582 25.3157 13.9375 25.6533L17.8486 29.5645C22.8797 26.9867 27.0045 22.8797 29.5645 17.8486L25.6533 13.9375C25.1557 13.4397 25.0134 12.7462 25.209 12.124C25.8667 10.133 26.2227 7.99941 26.2227 5.77734C26.2229 4.79976 27.0224 4 28 4H34.2227ZM12.0498 29.4209C10.7385 29.7706 9.38228 30.0108 8 30.1367V31.9053C9.8905 31.7467 11.7235 31.3878 13.4785 30.8496L12.0498 29.4209ZM30.1211 8C29.9958 9.3808 29.7561 10.7295 29.4082 12.0352L30.8506 13.4775C31.3886 11.7229 31.7467 9.89008 31.9053 8H30.1211Z" fill="black"/>
</svg>
