<svg width="40" height="40" viewBox="0 0 40 40" fill="none" xmlns="http://www.w3.org/2000/svg">
<g clip-path="url(#clip0_495_1644)">
<path d="M20 27.9112L20 29.9112H20V27.9112ZM37.2236 38.0098L39.2236 38.0098V38.0098H37.2236ZM20 55.2325V57.2325H20L20 55.2325ZM2.77637 38.0098H0.776367V38.0098L2.77637 38.0098ZM27.6814 25.9626L26.7253 24.206L27.6814 25.9626ZM12.3177 25.9621L11.3614 27.7186C13.9304 29.1172 16.8754 29.9111 20 29.9112L20 27.9112L20 25.9112C17.5603 25.9111 15.2709 25.2926 13.274 24.2055L12.3177 25.9621ZM20 27.9112V29.9112C23.1241 29.9112 26.0689 29.1174 28.6376 27.7192L27.6814 25.9626L26.7253 24.206C24.7285 25.2928 22.4394 25.9112 20 25.9112V27.9112ZM32.627 26.2985L31.1611 27.659C33.6837 30.3769 35.2236 34.0112 35.2236 38.0098H37.2236H39.2236C39.2236 32.962 37.2745 28.3659 34.0929 24.9379L32.627 26.2985ZM37.2236 38.0098L35.2236 38.0098C35.2234 46.4172 28.4076 53.2324 20 53.2325L20 55.2325L20 57.2325C30.6166 57.2324 39.2234 48.6266 39.2236 38.0098L37.2236 38.0098ZM20 55.2325V53.2325C11.5923 53.2325 4.77655 46.4172 4.77637 38.0098L2.77637 38.0098L0.776367 38.0098C0.776603 48.6266 9.38338 57.2325 20 57.2325V55.2325ZM2.77637 38.0098H4.77637C4.77637 34.011 6.31581 30.3763 8.83796 27.6583L7.37191 26.2979L5.90586 24.9374C2.72455 28.3658 0.776367 32.9624 0.776367 38.0098H2.77637ZM27.6814 25.9626L28.6376 27.7192C29.1935 27.4166 29.7686 27.2768 30.2343 27.2901C30.6723 27.3027 30.9589 27.4412 31.1611 27.659L32.627 26.2985L34.0929 24.9379C31.9338 22.6117 28.7233 23.1184 26.7253 24.206L27.6814 25.9626ZM12.3177 25.9621L13.274 24.2055C11.276 23.1178 8.06499 22.6107 5.90586 24.9374L7.37191 26.2979L8.83796 27.6583C9.04012 27.4404 9.32663 27.3019 9.76461 27.2894C10.2303 27.2761 10.8055 27.416 11.3614 27.7186L12.3177 25.9621Z" fill="#1A1A1A"/>
<circle cx="20" cy="11.8193" r="9.18066" stroke="#1A1A1A" stroke-width="4"/>
</g>
<defs>
<clipPath id="clip0_495_1644">
<rect width="40" height="40" fill="white"/>
</clipPath>
</defs>
</svg>
